{
  "accessors": [
    {
      "bufferView": 2,
      "componentType": 5126,
      "count": 950,
      "max": [
        0.9491299986839294,
        0.9491299986839294,
        0.6721299886703491
      ],
      "min": [
        -0.9491299986839294,
        -0.9491299986839294,
        -0.9491299986839294
      ],
      "type": "VEC3"
    },
    {
      "bufferView": 2,
      "byteOffset": 11400,
      "componentType": 5126,
      "count": 950,
      "max": [
        1.0,
        1.0,
        0.8907346129417419
      ],
      "min": [
        -1.0,
        -1.0,
        -1.0
      ],
      "type": "VEC3"
    },
    {
      "bufferView": 1,
      "componentType": 5126,
      "count": 950,
      "max": [
        0.9292500019073486,
        0.9890699982643127
      ],
      "min": [
        0.05511999875307083,
        0.011769999749958515
      ],
      "type": "VEC2"
    },
    {
      "bufferView": 0,
      "componentType": 5125,
      "count": 3720,
      "type": "SCALAR"
    },
    {
      "bufferView": 2,
      "byteOffset": 22800,
      "componentType": 5126,
      "count": 602,
      "max": [
        0.06958000361919403,
        0.06958000361919403,
        0.10090000182390213
      ],
      "min": [
        -0.06958000361919403,
        -0.06958000361919403,
        -0.10090000182390213
      ],
      "type": "VEC3"
    },
    {
      "bufferView": 2,
      "byteOffset": 30024,
      "componentType": 5126,
      "count": 602,
      "max": [
        1.0,
        1.0,
        1.0
      ],
      "min": [
        -1.0,
        -1.0,
        -1.0
      ],
      "type": "VEC3"
    },
    {
      "bufferView": 1,
      "byteOffset": 7600,
      "componentType": 5126,
      "count": 602,
      "max": [
        0.9266300201416016,
        0.9481099843978882
      ],
      "min": [
        0.07737000286579132,
        0.03869999945163727
      ],
      "type": "VEC2"
    },
    {
      "bufferView": 0,
      "byteOffset": 14880,
      "componentType": 5125,
      "count": 2880,
      "type": "SCALAR"
    },
    {
      "bufferView": 2,
      "byteOffset": 37248,
      "componentType": 5126,
      "count": 2358,
      "max": [
        1.0199300050735474,
        0.14300000667572021,
        0.5803499817848206
      ],
      "min": [
        -0.11253000050783157,
        -0.4507400095462799,
        -0.26756998896598816
      ],
      "type": "VEC3"
    },
    {
      "bufferView": 2,
      "byteOffset": 65544,
      "componentType": 5126,
      "count": 2358,
      "max": [
        0.9988361597061157,
        0.9970914125442505,
        0.9999991059303284
      ],
      "min": [
        -0.9968105554580688,
        -0.9989585280418396,
        -0.9995448589324951
      ],
      "type": "VEC3"
    },
    {
      "bufferView": 1,
      "byteOffset": 12416,
      "componentType": 5126,
      "count": 2358,
      "max": [
        1.0,
        1.0060399770736694
      ],
      "min": [
        0.0,
        0.0
      ],
      "type": "VEC2"
    },
    {
      "bufferView": 0,
      "byteOffset": 26400,
      "componentType": 5125,
      "count": 6900,
      "type": "SCALAR"
    },
    {
      "bufferView": 2,
      "byteOffset": 93840,
      "componentType": 5126,
      "count": 2358,
      "max": [
        0.9671499729156494,
        0.45103999972343445,
        0.4375999867916107
      ],
      "min": [
        -0.11253000050783157,
        -0.13948999345302582,
        -0.4150800108909607
      ],
      "type": "VEC3"
    },
    {
      "bufferView": 2,
      "byteOffset": 122136,
      "componentType": 5126,
      "count": 2358,
      "max": [
        0.9987782835960388,
        0.9997206330299377,
        0.9995003938674927
      ],
      "min": [
        -0.9986599087715149,
        -0.9957316517829895,
        -0.9994588494300842
      ],
      "type": "VEC3"
    },
    {
      "bufferView": 1,
      "byteOffset": 31280,
      "componentType": 5126,
      "count": 2358,
      "max": [
        1.0,
        1.0060399770736694
      ],
      "min": [
        0.0,
        0.0
      ],
      "type": "VEC2"
    },
    {
      "bufferView": 0,
      "byteOffset": 54000,
      "componentType": 5125,
      "count": 6900,
      "type": "SCALAR"
    },
    {
      "bufferView": 2,
      "byteOffset": 150432,
      "componentType": 5126,
      "count": 2358,
      "max": [
        0.7862600088119507,
        0.15512999892234802,
        0.5545099973678589
      ],
      "min": [
        -0.11253000050783157,
        -0.16978000104427338,
        -0.36748000979423523
      ],
      "type": "VEC3"
    },
    {
      "bufferView": 2,
      "byteOffset": 178728,
      "componentType": 5126,
      "count": 2358,
      "max": [
        0.9945672154426575,
        0.9970914125442505,
        0.9999991059303284
      ],
      "min": [
        -0.997215211391449,
        -0.9989585280418396,
        -0.9999715685844421
      ],
      "type": "VEC3"
    },
    {
      "bufferView": 1,
      "byteOffset": 50144,
      "componentType": 5126,
      "count": 2358,
      "max": [
        1.0,
        1.0060399770736694
      ],
      "min": [
        0.0,
        0.0
      ],
      "type": "VEC2"
    },
    {
      "bufferView": 0,
      "byteOffset": 81600,
      "componentType": 5125,
      "count": 6900,
      "type": "SCALAR"
    },
    {
      "bufferView": 2,
      "byteOffset": 207024,
      "componentType": 5126,
      "count": 2358,
      "max": [
        0.8640099763870239,
        0.16245999932289124,
        0.5880699753761292
      ],
      "min": [
        -0.11253000050783157,
        -0.16245000064373016,
        -0.37825000286102295
      ],
      "type": "VEC3"
    },
    {
      "bufferView": 2,
      "byteOffset": 235320,
      "componentType": 5126,
      "count": 2358,
      "max": [
        0.9959329962730408,
        0.998684287071228,
        0.9987770915031433
      ],
      "min": [
        -0.9977412819862366,
        -0.9986999034881592,
        -0.9991306066513062
      ],
      "type": "VEC3"
    },
    {
      "bufferView": 1,
      "byteOffset": 69008,
      "componentType": 5126,
      "count": 2358,
      "max": [
        1.0,
        1.0060399770736694
      ],
      "min": [
        0.0,
        0.0
      ],
      "type": "VEC2"
    },
    {
      "bufferView": 0,
      "byteOffset": 109200,
      "componentType": 5125,
      "count": 6900,
      "type": "SCALAR"
    },
    {
      "bufferView": 2,
      "byteOffset": 263616,
      "componentType": 5126,
      "count": 2358,
      "max": [
        1.0185400247573853,
        0.16245999932289124,
        0.6735900044441223
      ],
      "min": [
        -0.11253000050783157,
        -0.34404999017715454,
        -0.45329999923706055
      ],
      "type": "VEC3"
    },
    {
      "bufferView": 2,
      "byteOffset": 291912,
      "componentType": 5126,
      "count": 2358,
      "max": [
        0.9983932375907898,
        0.998684287071228,
        0.999810516834259
      ],
      "min": [
        -0.995502769947052,
        -0.9986999034881592,
        -0.999821662902832
      ],
      "type": "VEC3"
    },
    {
      "bufferView": 1,
      "byteOffset": 87872,
      "componentType": 5126,
      "count": 2358,
      "max": [
        1.0,
        1.0060399770736694
      ],
      "min": [
        0.0,
        0.0
      ],
      "type": "VEC2"
    },
    {
      "bufferView": 0,
      "byteOffset": 136800,
      "componentType": 5125,
      "count": 6900,
      "type": "SCALAR"
    },
    {
      "bufferView": 2,
      "byteOffset": 320208,
      "componentType": 5126,
      "count": 2358,
      "max": [
        0.988789975643158,
        0.16245999932289124,
        0.6761599779129028
      ],
      "min": [
        -0.11253000050783157,
        -0.1742199957370758,
        -0.43792998790740967
      ],
      "type": "VEC3"
    },
    {
      "bufferView": 2,
      "byteOffset": 348504,
      "componentType": 5126,
      "count": 2358,
      "max": [
        0.9899739623069763,
        0.998684287071228,
        0.9998915791511536
      ],
      "min": [
        -0.9981886744499207,
        -0.9986999034881592,
        -0.9997971653938293
      ],
      "type": "VEC3"
    },
    {
      "bufferView": 1,
      "byteOffset": 106736,
      "componentType": 5126,
      "count": 2358,
      "max": [
        1.0,
        1.0060399770736694
      ],
      "min": [
        0.0,
        0.0
      ],
      "type": "VEC2"
    },
    {
      "bufferView": 0,
      "byteOffset": 164400,
      "componentType": 5125,
      "count": 6900,
      "type": "SCALAR"
    },
    {
      "bufferView": 2,
      "byteOffset": 376800,
      "componentType": 5126,
      "count": 602,
      "max": [
        0.06958000361919403,
        0.06958000361919403,
        0.10090000182390213
      ],
      "min": [
        -0.06958000361919403,
        -0.06958000361919403,
        -0.10090000182390213
      ],
      "type": "VEC3"
    },
    {
      "bufferView": 2,
      "byteOffset": 384024,
      "componentType": 5126,
      "count": 602,
      "max": [
        1.0,
        1.0,
        1.0
      ],
      "min": [
        -1.0,
        -1.0,
        -1.0
      ],
      "type": "VEC3"
    },
    {
      "bufferView": 1,
      "byteOffset": 125600,
      "componentType": 5126,
      "count": 602,
      "max": [
        0.9266300201416016,
        0.9481099843978882
      ],
      "min": [
        0.07737000286579132,
        0.03869999945163727
      ],
      "type": "VEC2"
    },
    {
      "bufferView": 0,
      "byteOffset": 192000,
      "componentType": 5125,
      "count": 2880,
      "type": "SCALAR"
    },
    {
      "bufferView": 2,
      "byteOffset": 391248,
      "componentType": 5126,
      "count": 11295,
      "max": [
        0.6518599987030029,
        0.6518599987030029,
        1.4595500230789185
      ],
      "min": [
        -0.6518599987030029,
        -0.9180700182914734,
        -0.6587200164794922
      ],
      "type": "VEC3"
    },
    {
      "bufferView": 2,
      "byteOffset": 526788,
      "componentType": 5126,
      "count": 11295,
      "max": [
        1.0,
        1.0,
        0.9999963641166687
      ],
      "min": [
        -1.0,
        -1.0,
        -1.0
      ],
      "type": "VEC3"
    },
    {
      "bufferView": 1,
      "byteOffset": 130416,
      "componentType": 5126,
      "count": 11295,
      "max": [
        0.9694700241088867,
        0.9704300165176392
      ],
      "min": [
        0.04834999889135361,
        0.004290000069886446
      ],
      "type": "VEC2"
    },
    {
      "bufferView": 0,
      "byteOffset": 203520,
      "componentType": 5125,
      "count": 62208,
      "type": "SCALAR"
    }
  ],
  "asset": {
    "extras": {
      "author": "Chaitanya Krishnan (https://sketchfab.com/chaitanyak)",
      "license": "CC-BY-4.0 (http://creativecommons.org/licenses/by/4.0/)",
      "source": "https://sketchfab.com/3d-models/green-crawler-textured-gQ8YdxlWy55qBqETLe3lFPdwqIS",
      "title": "Green Crawler Textured"
    },
    "generator": "Sketchfab-12.68.0",
    "version": "2.0"
  },
  "bufferViews": [
    {
      "buffer": 0,
      "byteLength": 452352,
      "name": "floatBufferViews",
      "target": 34963
    },
    {
      "buffer": 0,
      "byteLength": 220776,
      "byteOffset": 452352,
      "byteStride": 8,
      "name": "floatBufferViews",
      "target": 34962
    },
    {
      "buffer": 0,
      "byteLength": 662328,
      "byteOffset": 673128,
      "byteStride": 12,
      "name": "floatBufferViews",
      "target": 34962
    }
  ],
  "buffers": [
    {
      "byteLength": 1335456,
      "uri": "scene.bin"
    }
  ],
  "extensionsUsed": [
    "KHR_materials_clearcoat"
  ],
  "images": [
    {
      "uri": "textures/chassy_baseColor.png"
    },
    {
      "uri": "textures/material_baseColor.png"
    },
    {
      "uri": "textures/material_2_baseColor.png"
    },
    {
      "uri": "textures/snail_baseColor.png"
    }
  ],
  "materials": [
    {
      "doubleSided": true,
      "name": "chassy",
      "pbrMetallicRoughness": {
        "baseColorTexture": {
          "index": 0
        },
        "roughnessFactor": 0.3048295455
      }
    },
    {
      "doubleSided": true,
      "name": "material",
      "pbrMetallicRoughness": {
        "baseColorTexture": {
          "index": 1
        },
        "metallicFactor": 0.0,
        "roughnessFactor": 0.6
      }
    },
    {
      "doubleSided": true,
      "name": "material_2",
      "pbrMetallicRoughness": {
        "baseColorTexture": {
          "index": 2
        },
        "roughnessFactor": 0.5230113636
      }
    },
    {
      "doubleSided": true,
      "emissiveFactor": [
        0.015058823532,
        0.108235294116,
        0.0
      ],
      "extensions": {
        "KHR_materials_clearcoat": {
          "clearcoatFactor": 1.0,
          "clearcoatRoughnessFactor": 0.04
        }
      },
      "name": "snail",
      "pbrMetallicRoughness": {
        "baseColorTexture": {
          "index": 3
        },
        "metallicFactor": 0.0,
        "roughnessFactor": 0.0866477273
      }
    }
  ],
  "meshes": [
    {
      "name": "shell_0",
      "primitives": [
        {
          "attributes": {
            "NORMAL": 1,
            "POSITION": 0,
            "TEXCOORD_0": 2
          },
          "indices": 3,
          "material": 0,
          "mode": 4
        }
      ]
    },
    {
      "name": "eye.001_0",
      "primitives": [
        {
          "attributes": {
            "NORMAL": 5,
            "POSITION": 4,
            "TEXCOORD_0": 6
          },
          "indices": 7,
          "material": 1,
          "mode": 4
        }
      ]
    },
    {
      "name": "Cylinder.002_0",
      "primitives": [
        {
          "attributes": {
            "NORMAL": 9,
            "POSITION": 8,
            "TEXCOORD_0": 10
          },
          "indices": 11,
          "material": 2,
          "mode": 4
        }
      ]
    },
    {
      "name": "Cylinder.008_0",
      "primitives": [
        {
          "attributes": {
            "NORMAL": 13,
            "POSITION": 12,
            "TEXCOORD_0": 14
          },
          "indices": 15,
          "material": 2,
          "mode": 4
        }
      ]
    },
    {
      "name": "Cylinder.007_0",
      "primitives": [
        {
          "attributes": {
            "NORMAL": 17,
            "POSITION": 16,
            "TEXCOORD_0": 18
          },
          "indices": 19,
          "material": 2,
          "mode": 4
        }
      ]
    },
    {
      "name": "Cylinder.001_0",
      "primitives": [
        {
          "attributes": {
            "NORMAL": 21,
            "POSITION": 20,
            "TEXCOORD_0": 22
          },
          "indices": 23,
          "material": 2,
          "mode": 4
        }
      ]
    },
    {
      "name": "Cylinder.000_0",
      "primitives": [
        {
          "attributes": {
            "NORMAL": 25,
            "POSITION": 24,
            "TEXCOORD_0": 26
          },
          "indices": 27,
          "material": 2,
          "mode": 4
        }
      ]
    },
    {
      "name": "Cylinder.004_0",
      "primitives": [
        {
          "attributes": {
            "NORMAL": 29,
            "POSITION": 28,
            "TEXCOORD_0": 30
          },
          "indices": 31,
          "material": 2,
          "mode": 4
        }
      ]
    },
    {
      "name": "eye_0",
      "primitives": [
        {
          "attributes": {
            "NORMAL": 33,
            "POSITION": 32,
            "TEXCOORD_0": 34
          },
          "indices": 35,
          "material": 1,
          "mode": 4
        }
      ]
    },
    {
      "name": "snail_0",
      "primitives": [
        {
          "attributes": {
            "NORMAL": 37,
            "POSITION": 36,
            "TEXCOORD_0": 38
          },
          "indices": 39,
          "material": 3,
          "mode": 4
        }
      ]
    }
  ],
  "nodes": [
    {
      "children": [
        1
      ],
      "matrix": [
        1.0,
        0.0,
        0.0,
        0.0,
        0.0,
        2.220446049250313e-16,
        -1.0,
        0.0,
        0.0,
        1.0,
        2.220446049250313e-16,
        0.0,
        0.0,
        0.0,
        0.0,
        1.0
      ],
      "name": "Sketchfab_model"
    },
    {
      "children": [
        2,
        4,
        24,
        26,
        28,
        30
      ],
      "name": "Root"
    },
    {
      "children": [
        3
      ],
      "matrix": [
        1.0,
        0.0,
        0.0,
        0.0,
        0.0,
        1.0,
        0.0,
        0.0,
        0.0,
        0.0,
        1.0,
        0.0,
        -4.73748,
        -3.5027999999999997,
        1.8452,
        1.0
      ],
      "name": "Point"
    },
    {
      "name": "Point"
    },
    {
      "children": [
        5,
        6,
        8,
        10,
        12,
        14,
        16,
        18,
        20,
        22
      ],
      "matrix": [
        1.0,
        0.0,
        0.0,
        0.0,
        0.0,
        0.7178900000000001,
        0.6961600000000001,
        0.0,
        0.0,
        -0.6961600000000001,
        0.7178900000000001,
        0.0,
        0.0,
        0.0,
        0.96028,
        1.0
      ],
      "name": "shell"
    },
    {
      "mesh": 0,
      "name": "shell_0"
    },
    {
      "children": [
        7
      ],
      "matrix": [
        0.8688400000000002,
        0.021130000000000003,
        0.03160000000000001,
        0.0,
        0.008070000000000003,
        0.60401,
        -0.6256400000000002,
        0.0,
        -0.03715000000000001,
        0.6253400000000001,
        0.6032400000000001,
        0.0,
        0.38379,
        0.40565,
        1.33212,
        1.0
      ],
      "name": "eye.001"
    },
    {
      "mesh": 1,
      "name": "eye.001_0"
    },
    {
      "children": [
        9
      ],
      "matrix": [
        -0.93455,
        0.23398000000000002,
        -0.26809,
        0.0,
        -0.35499000000000003,
        -0.6649000000000002,
        0.6571800000000001,
        0.0,
        -0.024490000000000005,
        0.7093400000000001,
        0.70445,
        0.0,
        -0.51514,
        -0.25243,
        -0.6815400000000001,
        1.0
      ],
      "name": "Cylinder.002"
    },
    {
      "mesh": 2,
      "name": "Cylinder.002_0"
    },
    {
      "children": [
        11
      ],
      "matrix": [
        0.9487400000000001,
        0.24335,
        -0.20167,
        0.0,
        -0.3149200000000001,
        0.6739200000000002,
        -0.6683300000000001,
        0.0,
        -0.026720000000000004,
        0.6975800000000001,
        0.71601,
        0.0,
        0.509,
        -0.25426,
        -0.5741400000000001,
        1.0
      ],
      "name": "Cylinder.008"
    },
    {
      "mesh": 3,
      "name": "Cylinder.008_0"
    },
    {
      "children": [
        13
      ],
      "matrix": [
        -0.9476800000000001,
        0.20773000000000003,
        -0.24237,
        0.0,
        -0.31824,
        -0.6739800000000001,
        0.6666900000000002,
        0.0,
        -0.024860000000000004,
        0.7089400000000001,
        0.7048300000000001,
        0.0,
        -0.6261700000000001,
        -0.4923700000000001,
        -0.33923000000000003,
        1.0
      ],
      "name": "Cylinder.007"
    },
    {
      "mesh": 4,
      "name": "Cylinder.007_0"
    },
    {
      "children": [
        15
      ],
      "matrix": [
        0.96047,
        -0.20856000000000002,
        0.18442000000000003,
        0.0,
        0.27798000000000006,
        0.6819300000000001,
        -0.6765400000000001,
        0.0,
        0.015340000000000003,
        0.70106,
        0.7129400000000001,
        0.0,
        0.6201300000000001,
        -0.44324,
        -0.3908800000000001,
        1.0
      ],
      "name": "Cylinder.001"
    },
    {
      "mesh": 5,
      "name": "Cylinder.001_0"
    },
    {
      "children": [
        17
      ],
      "matrix": [
        0.6518000000000002,
        -0.5435099999999999,
        0.52891,
        0.0,
        0.7583900000000001,
        0.4655,
        -0.45624,
        0.0,
        0.0017600000000000005,
        0.6985000000000001,
        0.7156100000000001,
        0.0,
        0.4239800000000001,
        -0.6286400000000002,
        -0.20434000000000002,
        1.0
      ],
      "name": "Cylinder.000"
    },
    {
      "mesh": 6,
      "name": "Cylinder.000_0"
    },
    {
      "children": [
        19
      ],
      "matrix": [
        -0.5818900000000001,
        -0.5829000000000001,
        0.5671200000000001,
        0.0,
        0.81326,
        -0.42015,
        0.40261,
        0.0,
        0.003590000000000001,
        0.6954900000000002,
        0.71853,
        0.0,
        -0.52026,
        -0.6239800000000001,
        -0.20886000000000002,
        1.0
      ],
      "name": "Cylinder.004"
    },
    {
      "mesh": 7,
      "name": "Cylinder.004_0"
    },
    {
      "children": [
        21
      ],
      "matrix": [
        0.996,
        0.06707000000000002,
        0.05912000000000001,
        0.0,
        -0.006770000000000002,
        0.7159200000000001,
        -0.6981500000000002,
        0.0,
        -0.08914000000000002,
        0.6949600000000001,
        0.7135,
        0.0,
        -0.13659000000000002,
        0.26537000000000005,
        1.49731,
        1.0
      ],
      "name": "eye"
    },
    {
      "mesh": 8,
      "name": "eye_0"
    },
    {
      "children": [
        23
      ],
      "matrix": [
        1.0,
        0.0,
        0.0,
        0.0,
        0.0,
        0.7178900000000001,
        -0.6961600000000001,
        0.0,
        0.0,
        0.6961600000000001,
        0.7178900000000001,
        0.0,
        -0.009910000000000002,
        -0.004700000000000001,
        -0.004850000000000001,
        1.0
      ],
      "name": "snail"
    },
    {
      "mesh": 9,
      "name": "snail_0"
    },
    {
      "children": [
        25
      ],
      "matrix": [
        1.0,
        0.0,
        0.0,
        0.0,
        0.0,
        1.0,
        0.0,
        0.0,
        0.0,
        0.0,
        1.0,
        0.0,
        5.09228,
        -3.5027999999999997,
        3.7274200000000004,
        1.0
      ],
      "name": "Point.001"
    },
    {
      "name": "Point.001"
    },
    {
      "children": [
        27
      ],
      "matrix": [
        1.0,
        0.0,
        0.0,
        0.0,
        0.0,
        1.0,
        0.0,
        0.0,
        0.0,
        0.0,
        1.0,
        0.0,
        5.09228,
        6.1361099999999995,
        1.8452,
        1.0
      ],
      "name": "Point.002"
    },
    {
      "name": "Point.002"
    },
    {
      "children": [
        29
      ],
      "matrix": [
        1.0,
        0.0,
        0.0,
        0.0,
        0.0,
        1.0,
        0.0,
        0.0,
        0.0,
        0.0,
        1.0,
        0.0,
        -4.73748,
        6.1361099999999995,
        1.8452,
        1.0
      ],
      "name": "Point.003"
    },
    {
      "name": "Point.003"
    },
    {
      "children": [
        31
      ],
      "matrix": [
        1.0,
        0.0,
        0.0,
        0.0,
        0.0,
        1.0,
        0.0,
        0.0,
        0.0,
        0.0,
        1.0,
        0.0,
        0.17808000000000002,
        0.80118,
        -6.44059,
        1.0
      ],
      "name": "Point.004"
    },
    {
      "name": "Point.004"
    }
  ],
  "samplers": [
    {
      "magFilter": 9729,
      "minFilter": 9987,
      "wrapS": 10497,
      "wrapT": 10497
    }
  ],
  "scene": 0,
  "scenes": [
    {
      "name": "Sketchfab_Scene",
      "nodes": [
        0
      ]
    }
  ],
  "textures": [
    {
      "sampler": 0,
      "source": 0
    },
    {
      "sampler": 0,
      "source": 1
    },
    {
      "sampler": 0,
      "source": 2
    },
    {
      "sampler": 0,
      "source": 3
    }
  ]
}
