{
  "accessors": [
    {
      "bufferView": 1,
      "componentType": 5126,
      "count": 7632,
      "max": [
        5000.0,
        5000.0,
        5000.0
      ],
      "min": [
        -5000.0,
        -5000.0,
        -5000.0
      ],
      "type": "VEC3"
    },
    {
      "bufferView": 1,
      "byteOffset": 91584,
      "componentType": 5126,
      "count": 7632,
      "max": [
        1.0,
        1.0,
        1.0
      ],
      "min": [
        -1.0,
        -1.0,
        -1.0
      ],
      "type": "VEC3"
    },
    {
      "bufferView": 0,
      "componentType": 5125,
      "count": 25560,
      "type": "SCALAR"
    }
  ],
  "asset": {
    "extras": {
      "author": "Icefyre24 (https://sketchfab.com/Icefyre24)",
      "license": "CC-BY-4.0 (http://creativecommons.org/licenses/by/4.0/)",
      "source": "https://sketchfab.com/3d-models/action-dice-84d6ae64bebf4c0fa5fb41f925d6dbc1",
      "title": "Action Dice"
    },
    "generator": "Sketchfab-12.67.0",
    "version": "2.0"
  },
  "bufferViews": [
    {
      "buffer": 0,
      "byteLength": 102240,
      "name": "floatBufferViews",
      "target": 34963
    },
    {
      "buffer": 0,
      "byteLength": 183168,
      "byteOffset": 102240,
      "byteStride": 12,
      "name": "floatBufferViews",
      "target": 34962
    }
  ],
  "buffers": [
    {
      "byteLength": 285408,
      "uri": "scene.bin"
    }
  ],
  "materials": [
    {
      "doubleSided": true,
      "name": "Scene_-_Root",
      "pbrMetallicRoughness": {
        "metallicFactor": 0.0,
        "roughnessFactor": 0.6
      }
    }
  ],
  "meshes": [
    {
      "name": "Object_0",
      "primitives": [
        {
          "attributes": {
            "NORMAL": 1,
            "POSITION": 0
          },
          "indices": 2,
          "material": 0,
          "mode": 4
        }
      ]
    }
  ],
  "nodes": [
    {
      "children": [
        1
      ],
      "matrix": [
        2.454911737004295e-06,
        0.0,
        0.0,
        0.0,
        0.0,
        5.45099906768941e-22,
        -2.454911737004295e-06,
        0.0,
        0.0,
        2.454911737004295e-06,
        5.45099906768941e-22,
        0.0,
        0.0,
        0.0,
        0.0,
        1.0
      ],
      "name": "Sketchfab_model"
    },
    {
      "children": [
        2
      ],
      "name": "2d3c9b1099824a49a6be0b6d39ee53d8.stl.cleaner.materialmerger.gles"
    },
    {
      "mesh": 0,
      "name": "Object_2"
    }
  ],
  "scene": 0,
  "scenes": [
    {
      "name": "Sketchfab_Scene",
      "nodes": [
        0
      ]
    }
  ]
}
